<svg width="4001" height="3556" viewBox="0 0 4001 3556" fill="none" xmlns="http://www.w3.org/2000/svg">
<path d="M2080.59 774.096C2208.14 774.096 2311.53 670.714 2311.53 543.187C2311.53 415.659 2208.14 312.278 2080.59 312.278C1953.05 312.278 1849.66 415.659 1849.66 543.187C1849.66 670.714 1953.05 774.096 2080.59 774.096Z" fill="#F2F2F2"/>
<path d="M2045.95 791.414C2173.5 791.414 2276.89 688.032 2276.89 560.505C2276.89 432.977 2173.5 329.596 2045.95 329.596C1918.41 329.596 1815.02 432.977 1815.02 560.505C1815.02 688.032 1918.41 791.414 2045.95 791.414Z" fill="#F2F2F2"/>
<path d="M2299.98 3088.64L2083.52 3088.63V3085.9C2083.52 3063.56 2092.4 3042.13 2108.2 3026.33C2124 3010.53 2145.43 3001.66 2167.77 3001.66H2167.78L2207.32 2971.67L2281.09 3001.66L2299.99 3001.66L2299.98 3088.64Z" fill="#F2F2F2"/>
<path d="M2199.22 2971.75L2014.28 3084.22L2012.86 3081.88C2001.24 3062.79 1997.69 3039.87 2002.98 3018.16C2008.27 2996.46 2021.96 2977.74 2041.05 2966.13L2041.06 2966.13L2059.25 2919.96L2137.87 2907.25L2154.01 2897.43L2199.22 2971.75Z" fill="#F2F2F2"/>
<path d="M2326.37 2358.54C2325.39 2365.46 2323.94 2389.02 2322.27 2423.31C2314.13 2589.56 2299.98 3008.14 2299.98 3008.14L2211.82 2980.72C2211.82 2980.72 2106.98 2664.49 2124.3 2491.31L2111.83 2431.04L2090.47 2328.06V2328L2025.4 2014.37C2025.4 2014.37 2011.14 2099.34 2009.98 2119.26C2008.83 2139.17 1997.28 2144.95 1991.51 2144.95C1962.58 2144.95 1971.48 2139.81 1975.69 2168.38C1978.75 2188.93 1953.69 2306.76 1939.37 2371.18C1933.83 2396.23 1929.91 2413.2 1929.91 2413.2L1954.39 2465.97L2157.32 2903.54L2080.59 2944.64L1774.49 2491.02L1744.29 2446.28L1737.82 2396.12L1686.9 2001.44C1686.9 2001.44 1671.03 1956.81 1686.9 1955.66C1702.84 1954.45 1711.84 1959.47 1707.34 1942.55C1702.84 1925.58 1795.21 1642.72 1795.21 1642.72L2274.41 1746.63C2274.41 1746.63 2321.64 1840.49 2303.28 1885.17C2284.86 1929.85 2318.34 2275.87 2299.23 2291.23C2280.18 2306.58 2267.88 2294.29 2294.21 2320.67C2298.24 2324.87 2302.99 2328.31 2308.24 2330.83C2324.52 2338.22 2330.99 2326.21 2326.37 2358.54Z" fill="#F2F2F2"/>
<path d="M2044.45 704.363C2117.97 704.363 2177.56 644.774 2177.56 571.269C2177.56 497.763 2117.97 438.174 2044.45 438.174C1970.94 438.174 1911.34 497.763 1911.34 571.269C1911.34 644.774 1970.94 704.363 2044.45 704.363Z" fill="#A0616A"/>
<path d="M2148.18 685.894L2095.41 695.996C2095.41 695.996 2144.49 616.794 2141.6 580.541C2138.71 544.289 2099.22 531.3 2099.22 531.3C2099.22 531.3 2077.34 536.034 2054.31 538.689C2051.55 530.922 2047.97 523.471 2043.63 516.464C2042.77 525.51 2038.77 533.969 2032.31 540.363C2023.87 541.088 2015.37 540.107 2007.31 537.477C1998.19 533.32 1998.36 526.104 2001.36 519.35C1971.63 521.804 1942.62 529.771 1915.8 542.845C1914.47 525.123 1915.15 507.307 1917.82 489.736C1919.09 489.39 1920.36 488.986 1921.63 488.582C1929.5 486.093 1937.09 482.784 1944.26 478.71C1936.28 477.65 1928.81 474.141 1922.9 468.666C1927.75 454.465 1935.49 442.169 1947.67 436.165C1959.42 430.418 1972.27 427.263 1985.35 426.915C1998.43 426.566 2011.43 429.032 2023.48 434.145C2023.48 434.145 1995.24 413.536 2005.64 405.108C2006.33 405.801 2007.02 406.436 2007.77 407.071C2008.75 407.879 2009.85 408.745 2010.89 409.553C2017.3 414.749 2026.88 407.417 2028.15 399.566C2028.29 398.575 2028.48 397.592 2028.73 396.622C2028.9 395.814 2029.13 395.006 2029.36 394.255C2029.56 393.589 2029.79 392.934 2030.06 392.293C2049.28 387.674 2107.42 406.436 2129.77 447.769C2129.77 447.769 2285.94 522.814 2148.18 685.894Z" fill="#3F3D56"/>
<path d="M2099.96 1872.54C2098.04 1859.24 2101.38 1845.72 2109.27 1834.85C2117.17 1823.98 2128.99 1816.61 2142.23 1814.33C2144.93 1813.9 2147.66 1813.71 2150.39 1813.73L2289.57 1490.57L2385.05 1562.24L2199.15 1868.39C2198.16 1879.71 2193.45 1890.37 2185.76 1898.73C2178.06 1907.09 2167.82 1912.66 2156.62 1914.59C2150.24 1915.62 2143.72 1915.39 2137.43 1913.9C2131.14 1912.41 2125.2 1909.7 2119.96 1905.92C2114.72 1902.14 2110.27 1897.37 2106.87 1891.87C2103.48 1886.37 2101.2 1880.25 2100.16 1873.87C2100.09 1873.43 2100.02 1872.98 2099.96 1872.54Z" fill="#6C63FF"/>
<path d="M1710.08 1898.88C1719.44 1889.25 1724.68 1876.34 1724.67 1862.91C1724.67 1849.47 1719.42 1836.57 1710.04 1826.95C1708.11 1825.02 1706.02 1823.26 1703.79 1821.68L1780.89 1478.37L1661.52 1480.34L1632.22 1837.29C1626.38 1847.04 1623.93 1858.44 1625.25 1869.72C1626.57 1881 1631.59 1891.53 1639.52 1899.66C1644.08 1904.24 1649.49 1907.88 1655.46 1910.37C1661.42 1912.86 1667.82 1914.15 1674.29 1914.17C1680.75 1914.18 1687.15 1912.93 1693.13 1910.47C1699.11 1908.01 1704.55 1904.4 1709.13 1899.84C1709.45 1899.53 1709.77 1899.2 1710.08 1898.88Z" fill="#6C63FF"/>
<path d="M2479.37 1324.18C2462.05 1347.27 2438.95 1321.23 2462.05 1354.49C2477.92 1377.35 2386.93 1591.63 2328.68 1722.9C2302.35 1782.3 2282.66 1824.73 2282.66 1824.73L2184.46 1767.87L2172.97 1761.23C2172.97 1761.23 2263.03 1534.59 2292.02 1453.14C2296.81 1439.63 2299.98 1430.11 2300.74 1426.3C2306.16 1399.22 2306.86 1376.02 2300.74 1367.42C2299.29 1364.21 2298.05 1360.91 2297.04 1357.55C2285.44 1323.54 2250.1 1208.72 2217.02 1100.14C2207.38 1068.27 2197.85 1036.99 2189.19 1008.41C2166.96 935.039 2150.28 879.679 2150.28 879.679L2283.07 885.452C2283.07 885.452 2285.26 889.146 2289.13 895.842C2298.37 911.775 2317.31 944.622 2339.24 984.107C2355.06 1012.51 2372.5 1044.43 2388.95 1075.84C2430.87 1155.73 2466.95 1232.68 2456.27 1243.36C2433.18 1266.45 2409.57 1253.35 2438.66 1282.96C2467.82 1312.63 2496.69 1301.09 2479.37 1324.18Z" fill="#F2F2F2"/>
<path d="M2320.58 1631.18C2285.94 1596.89 2292.35 1440.62 2292.35 1440.62C2292.35 1440.62 2326.81 915.879 2280.16 880.723C2247.91 857.446 2213.59 837.175 2177.63 820.167C2175.55 819.244 2174.45 818.724 2174.45 818.724L2144.66 734.731L1961.12 725.206L1929.08 787.436C1929.08 787.436 1924.06 787.782 1916.21 788.879C1886.88 792.92 1817.94 807.236 1824.06 851.859C1831.8 908.432 1777.18 1255.89 1760.55 1273.27C1743.93 1290.64 1748.31 1354.14 1789.42 1394.5C1830.53 1434.85 1800.97 1544.59 1772.1 1590.77C1754.78 1619.04 1746.78 1652.03 1749.24 1685.09C1749.24 1685.09 1772.1 1810.13 1829.83 1769.72C1851.83 1754.31 1883.07 1752.35 1920.65 1755.18C1921.02 1755.2 1921.41 1755.25 1921.78 1755.28L1920.65 1760.95C1972.84 1764.82 2037.33 1777.92 2106.32 1777.17L2104.28 1771.37C2104.97 1771.37 2105.64 1771.4 2106.32 1771.4C2117.99 1771.28 2129.71 1770.76 2141.6 1769.72C2244.48 1760.78 2289.92 1789.06 2303.26 1758.18C2316.59 1727.29 2355.22 1665.47 2320.58 1631.18Z" fill="#F2F2F2"/>
<path opacity="0.3" d="M2045.95 733.687C2141.61 733.687 2219.16 656.151 2219.16 560.505C2219.16 464.859 2141.61 387.323 2045.95 387.323C1950.3 387.323 1872.75 464.859 1872.75 560.505C1872.75 656.151 1950.3 733.687 2045.95 733.687Z" fill="#6C63FF"/>
<path d="M1962.64 821.952C1962.64 821.952 1936.32 909.351 1905.66 1010.2C1896.02 1041.95 1885.91 1075.03 1876.1 1107.18C1844.06 1211.73 1814.84 1305.94 1812.13 1309.69C1806.01 1318.29 1806.76 1341.5 1812.13 1368.57C1813.23 1374 1810.74 1395.13 1806.07 1425.43C1799.95 1465.21 1790.07 1520.74 1779.57 1577.43C1771.19 1622.74 1762.42 1668.75 1754.86 1707.95C1743.02 1768.79 1734.19 1813.19 1734.19 1813.19H1624.49C1624.49 1813.19 1645.1 1353.04 1668.2 1319.85C1691.29 1286.6 1668.2 1312.63 1650.88 1289.54C1633.56 1266.45 1662.42 1278 1691.52 1248.33C1720.62 1218.71 1697.06 1231.82 1673.97 1208.72C1665.43 1200.18 1684.54 1145.74 1712.02 1080.57C1724.83 1050.32 1739.44 1017.71 1753.87 986.302C1783.72 921.474 1812.99 861.842 1824.6 838.289C1824.6 838.232 1824.66 838.174 1824.66 838.116L1829.85 827.725L1962.64 821.952Z" fill="#F2F2F2"/>
<path d="M2201.84 843.368C2081.29 890.184 1972.91 898.254 1884.3 843.368V739.459C1988.66 802.073 2094.55 800.361 2201.84 739.459V843.368Z" fill="#000213"/>
<path d="M2294.21 1507.23C2107.92 1554.05 1940.42 1562.12 1803.47 1507.23V1403.32C1964.76 1465.94 2128.41 1464.22 2294.21 1403.32V1507.23Z" fill="#000213"/>
<path d="M2326.37 2358.54C2325.39 2365.46 2323.94 2389.02 2322.27 2423.31C2252.71 2434.58 2182.03 2437.17 2111.83 2431.04L2090.47 2328.06C2162.39 2341.19 2236.01 2342.12 2308.24 2330.83C2324.52 2338.22 2330.99 2326.21 2326.37 2358.54Z" fill="#000213"/>
<path d="M1954.39 2465.97C1895.19 2479.14 1835.03 2487.52 1774.49 2491.02L1744.29 2446.28L1737.82 2396.12C1805.87 2397.87 1873.81 2389.46 1939.38 2371.18C1933.83 2396.23 1929.91 2413.2 1929.91 2413.2L1954.39 2465.97Z" fill="#000213"/>
<path d="M1919.44 964.854C1917.36 964.681 1915.28 964.623 1913.15 964.623C1888.01 964.654 1863.85 974.31 1845.61 991.607C1827.38 1008.9 1816.47 1032.53 1815.11 1057.62C1815.06 1059.3 1815 1061.03 1815 1062.76C1815 1065.13 1815.06 1067.44 1815.29 1069.74C1816.74 1090.29 1824.63 1109.86 1837.83 1125.68C1851.03 1141.49 1868.88 1152.75 1888.85 1157.84C1908.81 1162.94 1929.87 1161.63 1949.04 1154.08C1968.21 1146.54 1984.52 1133.15 1995.65 1115.81C1997.89 1112.39 1999.89 1108.82 2001.65 1105.13C2008.6 1090.66 2011.88 1074.7 2011.21 1058.66C2010.55 1042.62 2005.95 1026.99 1997.84 1013.14C1989.72 999.294 1978.33 987.649 1964.66 979.229C1950.99 970.809 1935.46 965.873 1919.44 964.854V964.854ZM1987.22 1114.14C1978.17 1125.02 1966.85 1133.81 1954.06 1139.89C1941.27 1145.97 1927.31 1149.2 1913.15 1149.35C1892.06 1149.32 1871.71 1141.61 1855.89 1127.66C1840.08 1113.7 1829.89 1094.47 1827.24 1073.55C1826.77 1069.97 1826.54 1066.37 1826.55 1062.76C1826.54 1062.26 1826.56 1061.76 1826.6 1061.26C1827 1038.56 1836.29 1016.93 1852.48 1001.02C1868.66 985.107 1890.45 976.183 1913.15 976.168C1913.67 977.554 1914.19 978.881 1914.76 980.151C1939.42 1038.46 1992.88 1034.07 1999.75 1062.76C2003.07 1076.63 2001.05 1091.24 1994.09 1103.69C1992.13 1107.38 1989.83 1110.88 1987.22 1114.14V1114.14Z" fill="#000213"/>
<g filter="url(#filter0_f_10_2)">
<path d="M1883.4 1079.42C1882.84 1095.43 1895.36 1108.86 1911.37 1109.42C1927.38 1109.97 1940.8 1097.45 1941.36 1081.45C1941.93 1065.34 1934.32 1052.18 1940.12 1041.1C1940.12 1041.1 1931.44 1042.41 1926.16 1055.12C1926.16 1055.12 1910.62 1038.46 1918.14 1016.15C1918.14 1016.15 1901.52 1022.02 1902.51 1043.01C1903.35 1061.01 1900.06 1063.88 1900.06 1063.88C1900.57 1049.39 1889.46 1042.56 1889.46 1042.56C1892.12 1060.38 1883.9 1064.93 1883.4 1079.42Z" fill="#BCBCBC"/>
<path d="M1933.06 1088.03C1932.64 1100.08 1922.97 1110.05 1910.93 1109.4C1899.59 1108.78 1891.45 1099.86 1892.75 1088.61C1893.33 1083.6 1897.44 1075.58 1903.96 1067.55L1908.04 1070.21C1908.26 1060 1913.56 1046.62 1913.56 1046.62C1916.24 1061.01 1933.85 1065.33 1933.06 1088.03Z" fill="#DBDBDB"/>
<path d="M1904.44 1076.93C1902.5 1086.54 1899.15 1089.94 1898.94 1096.08C1898.71 1102.53 1904.26 1109.17 1911.37 1109.42C1918.53 1109.67 1924.47 1104.01 1924.7 1096.85C1925.32 1077.6 1914.44 1067.61 1914.44 1067.61C1915.71 1077.33 1910.72 1081.99 1910.72 1081.99C1908.81 1078.9 1904.44 1076.93 1904.44 1076.93Z" fill="white"/>
</g>
<defs>
<filter id="filter0_f_10_2" x="1881.38" y="1014.15" width="62.0117" height="97.283" filterUnits="userSpaceOnUse" color-interpolation-filters="sRGB">
<feFlood flood-opacity="0" result="BackgroundImageFix"/>
<feBlend mode="normal" in="SourceGraphic" in2="BackgroundImageFix" result="shape"/>
<feGaussianBlur stdDeviation="1" result="effect1_foregroundBlur_10_2"/>
</filter>
</defs>
</svg>
