<svg width="318" height="512" viewBox="0 0 318 512" fill="none" xmlns="http://www.w3.org/2000/svg">
<path d="M0 353.104C0 440.861 71.141 512.001 158.897 512.001C246.653 512.001 317.794 440.861 317.794 353.104C317.794 264.828 273.656 194.207 303.27 132.414C303.27 132.414 256 141.242 229.518 211.862C229.518 211.862 141.242 123.586 178.124 0C178.124 0 88.277 35.31 97.673 150.069C105.731 248.475 88.277 264.828 88.277 264.828C88.277 185.38 26.162 150.069 26.162 150.069C44.138 247.173 0 273.656 0 353.104Z" fill="#BCBCBC"/>
<path d="M273.593 390.735C273.593 456.828 222.56 513.251 156.479 511.976C94.291 510.778 48.022 463.462 52.967 401.655C55.174 374.069 76.139 329.379 110.346 284.138L133.151 297.931C132.414 242.024 158.897 167.725 158.897 167.725C176.293 246.008 273.593 266.299 273.593 390.735Z" fill="#DBDBDB"/>
<path d="M114.759 335.449C105.931 388.415 88.276 407.698 88.276 441.38C88.276 476.691 119.895 512.001 158.897 512.001C198.181 512.001 229.626 479.904 229.517 440.62C229.222 335.112 167.725 282.484 167.725 282.484C176.553 335.45 150.07 361.932 150.07 361.932C139.038 345.386 114.759 335.449 114.759 335.449Z" fill="white"/>
</svg>
