<?xml version="1.0" encoding="UTF-8"?>
<svg fill="none" viewBox="0 0 2000 982" xmlns="http://www.w3.org/2000/svg">
<g clip-path="url(#a)">
<rect width="2e3" height="982" fill="#141414"/>
<path d="M2000 -32H0V982.508H2000V-32Z" fill="#F50057"/>
<path d="m1853.5 846.17h-3.63v134.8h3.63v-134.8z" fill="#121219"/>
<path d="m1851.7 865.24c10.53 0 19.06-8.535 19.06-19.064 0-10.528-8.53-19.063-19.06-19.063s-19.07 8.535-19.07 19.063c0 10.529 8.54 19.064 19.07 19.064z" fill="#121219"/>
<path d="m1851.7 929.26s-2.73-58.574-58.55-51.765z" fill="#121219"/>
<path d="m107.62 917.06c11.002 40.671 48.687 65.859 48.687 65.859s19.847-40.752 8.845-81.423-48.687-65.86-48.687-65.86-19.847 40.753-8.845 81.424z" fill="#fff"/>
<path d="m123.79 908.31c30.19 29.389 33.878 74.567 33.878 74.567s-45.261-2.471-75.45-31.86c-30.19-29.389-33.877-74.567-33.877-74.567s45.26 2.471 75.45 31.86z" fill="#121219"/>
<path d="M801.141 -32L0 518.081V392.753L618.714 -32H801.141Z" fill="#000" opacity=".1"/>
<path d="M498.134 -32L0 309.98V184.724L315.688 -32H498.134Z" fill="#000" opacity=".1"/>
<path d="M169.312 -32L0 84.2337V-32H169.312Z" fill="#000" opacity=".1"/>
<path d="m1e3 739.09c159.08 0 288.04-19.466 288.04-43.479s-128.96-43.479-288.04-43.479c-159.08 0-288.04 19.466-288.04 43.479s128.96 43.479 288.04 43.479z" fill="#000" opacity=".1"/>
<path d="m1e3 702.86c159.08 0 288.04-19.466 288.04-43.479 0-24.012-128.96-43.478-288.04-43.478-159.08 0-288.04 19.466-288.04 43.478 0 24.013 128.96 43.479 288.04 43.479z" fill="#000" opacity=".1"/>
<path d="m1e3 666.63c159.08 0 288.04-19.466 288.04-43.479s-128.96-43.479-288.04-43.479c-159.08 0-288.04 19.466-288.04 43.479s128.96 43.479 288.04 43.479z" fill="#000" opacity=".1"/>
<path d="m1e3 630.4c159.08 0 288.04-19.466 288.04-43.478 0-24.013-128.96-43.479-288.04-43.479-159.08 0-288.04 19.466-288.04 43.479 0 24.012 128.96 43.478 288.04 43.478z" fill="#000" opacity=".1"/>
<path d="m1e3 594.16c159.08 0 288.04-19.466 288.04-43.479s-128.96-43.479-288.04-43.479c-159.08 0-288.04 19.466-288.04 43.479s128.96 43.479 288.04 43.479z" fill="#000" opacity=".1"/>
<path d="m1e3 557.93c159.08 0 288.04-19.467 288.04-43.479 0-24.013-128.96-43.479-288.04-43.479-159.08 0-288.04 19.466-288.04 43.479 0 24.012 128.96 43.479 288.04 43.479z" fill="#000" opacity=".1"/>
<path d="m1100.9 381.37c-22.96 84.894-101.62 137.47-101.62 137.47s-41.426-85.063-18.461-169.96c22.961-84.893 101.62-137.47 101.62-137.47s41.43 85.063 18.46 169.96z" fill="#fff"/>
<path d="m891.98 381.37c22.964 84.894 101.62 137.47 101.62 137.47s41.427-85.062 18.457-169.96c-22.96-84.893-101.62-137.47-101.62-137.47s-41.426 85.063-18.461 169.96z" fill="#fff"/>
<path d="m925.72 363.13c63.016 61.344 70.713 155.64 70.713 155.64s-94.472-5.158-157.49-66.503c-63.016-61.344-70.713-155.64-70.713-155.64s94.472 5.158 157.49 66.503z" fill="#121219"/>
<path d="m1067.2 363.13c-63.02 61.344-70.713 155.64-70.713 155.64s94.473-5.158 157.48-66.503c63.02-61.344 70.72-155.64 70.72-155.64s-94.47 5.158-157.49 66.503z" fill="#121219"/>
<path d="m1481.9 765.68h-1017.8v3.623h1017.8v-3.623z" fill="#121219"/>
<path d="m1159.7 983c-4.3 0-8.5-1.275-12.08-3.664-3.57-2.389-6.36-5.784-8-9.756-1.65-3.973-2.08-8.344-1.24-12.561s2.91-8.09 5.95-11.131c3.04-3.04 6.91-5.11 11.13-5.949s8.59-0.409 12.56 1.237c3.97 1.645 7.37 4.432 9.76 8.007s3.66 7.778 3.66 12.078c0 5.763-2.3 11.289-6.37 15.364-4.08 4.076-9.6 6.368-15.37 6.375zm0-39.856c-3.58 0-7.08 1.063-10.06 3.053-2.98 1.991-5.3 4.82-6.67 8.131-1.38 3.31-1.73 6.953-1.04 10.467 0.7 3.514 2.43 6.742 4.96 9.276 2.54 2.533 5.76 4.259 9.28 4.958 3.51 0.699 7.15 0.34 10.47-1.031 3.31-1.372 6.13-3.694 8.13-6.673 1.99-2.979 3.05-6.481 3.05-10.064-0.01-4.804-1.92-9.408-5.31-12.805-3.4-3.396-8-5.306-12.81-5.312z" fill="#F0F0F0"/>
<path d="m476.45 543.3h-35.763v-35.763h35.763v35.763zm-33.012-2.751h30.261v-30.261h-30.261v30.261z" fill="#121219"/>
<path d="m1436 793.45l-24.39-26.153 26.15-24.394 24.39 26.153-26.15 24.394zm-20.51-26.018l20.64 22.13 22.13-20.641-20.64-22.13-22.13 20.641z" fill="#F0F0F0"/>
<path d="m2e3 174.52v518.12c-68.71 0-134.6-27.294-183.18-75.878-48.58-48.583-75.88-114.48-75.88-183.18 0-68.708 27.3-134.6 75.88-183.18 48.58-48.583 114.47-75.877 183.18-75.877z" fill="#000" opacity=".1"/>
<path d="m1760.9 442.64c110.06 0 199.27-89.22 199.27-199.28 0-110.06-89.21-199.28-199.27-199.28s-199.28 89.22-199.28 199.28c0 110.06 89.22 199.28 199.28 199.28z" fill="#000" opacity=".1"/>
<path d="m1585.1 228.87c56.03 0 101.45-45.422 101.45-101.45 0-56.03-45.42-101.45-101.45-101.45-56.02 0-101.44 45.421-101.44 101.45 0 56.029 45.42 101.45 101.44 101.45z" fill="#000" opacity=".1"/>
<path d="m1585.7 180.09c-10.44 0-20.63-3.094-29.31-8.89-8.67-5.796-15.43-14.034-19.42-23.672-4-9.638-5.04-20.244-3.01-30.476 2.04-10.232 7.06-19.63 14.44-27.007 7.38-7.3769 16.77-12.401 27.01-14.436 10.23-2.0353 20.83-0.9907 30.47 3.0016s17.88 10.753 23.67 19.427c5.8 8.6741 8.89 18.872 8.89 29.305-0.01 13.984-5.57 27.392-15.46 37.28-9.89 9.889-23.3 15.451-37.28 15.467z" fill="#121219"/>
<path d="m996.94 198.14c10.081 0 18.261-8.174 18.261-18.258s-8.18-18.259-18.261-18.259c-10.084 0-18.259 8.175-18.259 18.259s8.175 18.258 18.259 18.258z" fill="#F0F0F0"/>
<path d="m996.94 232.63c-10.433 0-20.631-3.094-29.305-8.89s-15.434-14.034-19.427-23.672c-3.992-9.638-5.036-20.244-3.001-30.476s7.059-19.63 14.435-27.007c7.377-7.377 16.775-12.401 27.007-14.436s20.842-0.991 30.472 3.002c9.64 3.992 17.88 10.753 23.68 19.427 5.79 8.674 8.88 18.872 8.88 29.305-0.01 13.984-5.57 27.392-15.46 37.28-9.89 9.889-23.3 15.451-37.281 15.467zm0-101.44c-9.63 0-19.044 2.856-27.051 8.206-8.006 5.35-14.247 12.954-17.932 21.851s-4.649 18.687-2.771 28.132c1.879 9.444 6.516 18.12 13.325 24.929 6.81 6.81 15.485 11.447 24.93 13.326 9.445 1.878 19.23 0.914 28.13-2.771s16.5-9.926 21.85-17.933 8.21-17.42 8.21-27.05c-0.02-12.909-5.15-25.285-14.28-34.413s-21.5-14.262-34.411-14.277z" fill="#2F2E41"/>
</g>
<defs>
<clipPath id="a">
<rect width="2e3" height="982" fill="#fff"/>
</clipPath>
</defs>
</svg>
