<svg width="2000" height="982" viewBox="0 0 2000 982" fill="none" xmlns="http://www.w3.org/2000/svg">
<g clip-path="url(#clip0_1_11)">
<rect width="2000" height="982" fill="#141414"/>
<path d="M2000 -32H0V982.508H2000V-32Z" fill="#F50057"/>
<path d="M1853.53 846.173H1849.9V980.978H1853.53V846.173Z" fill="#121219"/>
<path d="M1851.72 865.236C1862.25 865.236 1870.78 856.701 1870.78 846.172C1870.78 835.644 1862.25 827.109 1851.72 827.109C1841.19 827.109 1832.65 835.644 1832.65 846.172C1832.65 856.701 1841.19 865.236 1851.72 865.236Z" fill="#121219"/>
<path d="M1851.72 929.256C1851.72 929.256 1848.99 870.682 1793.17 877.491Z" fill="#121219"/>
<path d="M107.624 917.055C118.626 957.726 156.311 982.914 156.311 982.914C156.311 982.914 176.158 942.162 165.156 901.491C154.154 860.82 116.469 835.631 116.469 835.631C116.469 835.631 96.6222 876.384 107.624 917.055Z" fill="white"/>
<path d="M123.791 908.314C153.981 937.703 157.669 982.881 157.669 982.881C157.669 982.881 112.408 980.41 82.2185 951.021C52.0286 921.632 48.3411 876.454 48.3411 876.454C48.3411 876.454 93.6012 878.925 123.791 908.314Z" fill="#121219"/>
<path opacity="0.1" d="M801.141 -32L0 518.081V392.753L618.714 -32H801.141Z" fill="black"/>
<path opacity="0.1" d="M498.134 -32L0 309.98V184.724L315.688 -32H498.134Z" fill="black"/>
<path opacity="0.1" d="M169.312 -32L0 84.2337V-32H169.312Z" fill="black"/>
<path opacity="0.1" d="M1000 739.093C1159.08 739.093 1288.04 719.627 1288.04 695.614C1288.04 671.601 1159.08 652.135 1000 652.135C840.918 652.135 711.957 671.601 711.957 695.614C711.957 719.627 840.918 739.093 1000 739.093Z" fill="black"/>
<path opacity="0.1" d="M1000 702.86C1159.08 702.86 1288.04 683.394 1288.04 659.381C1288.04 635.369 1159.08 615.903 1000 615.903C840.918 615.903 711.957 635.369 711.957 659.381C711.957 683.394 840.918 702.86 1000 702.86Z" fill="black"/>
<path opacity="0.1" d="M1000 666.628C1159.08 666.628 1288.04 647.162 1288.04 623.149C1288.04 599.136 1159.08 579.67 1000 579.67C840.918 579.67 711.957 599.136 711.957 623.149C711.957 647.162 840.918 666.628 1000 666.628Z" fill="black"/>
<path opacity="0.1" d="M1000 630.395C1159.08 630.395 1288.04 610.929 1288.04 586.917C1288.04 562.904 1159.08 543.438 1000 543.438C840.918 543.438 711.957 562.904 711.957 586.917C711.957 610.929 840.918 630.395 1000 630.395Z" fill="black"/>
<path opacity="0.1" d="M1000 594.163C1159.08 594.163 1288.04 574.697 1288.04 550.684C1288.04 526.671 1159.08 507.205 1000 507.205C840.918 507.205 711.957 526.671 711.957 550.684C711.957 574.697 840.918 594.163 1000 594.163Z" fill="black"/>
<path opacity="0.1" d="M1000 557.931C1159.08 557.931 1288.04 538.464 1288.04 514.452C1288.04 490.439 1159.08 470.973 1000 470.973C840.918 470.973 711.957 490.439 711.957 514.452C711.957 538.464 840.918 557.931 1000 557.931Z" fill="black"/>
<path d="M1100.89 381.371C1077.93 466.265 999.27 518.841 999.27 518.841C999.27 518.841 957.844 433.778 980.809 348.885C1003.77 263.992 1082.43 211.415 1082.43 211.415C1082.43 211.415 1123.86 296.478 1100.89 381.371Z" fill="white"/>
<path d="M891.979 381.371C914.943 466.265 993.603 518.841 993.603 518.841C993.603 518.841 1035.03 433.779 1012.06 348.885C989.1 263.992 910.44 211.415 910.44 211.415C910.44 211.415 869.014 296.478 891.979 381.371Z" fill="white"/>
<path d="M925.724 363.127C988.74 424.471 996.437 518.772 996.437 518.772C996.437 518.772 901.965 513.614 838.949 452.269C775.933 390.925 768.236 296.624 768.236 296.624C768.236 296.624 862.708 301.782 925.724 363.127Z" fill="#121219"/>
<path d="M1067.15 363.127C1004.13 424.471 996.437 518.772 996.437 518.772C996.437 518.772 1090.91 513.614 1153.92 452.269C1216.94 390.925 1224.64 296.624 1224.64 296.624C1224.64 296.624 1130.17 301.782 1067.15 363.127Z" fill="#121219"/>
<path d="M1481.88 765.677H464.08V769.3H1481.88V765.677Z" fill="#121219"/>
<path d="M1159.73 983C1155.43 983 1151.23 981.725 1147.65 979.336C1144.08 976.947 1141.29 973.552 1139.65 969.58C1138 965.607 1137.57 961.236 1138.41 957.019C1139.25 952.802 1141.32 948.929 1144.36 945.888C1147.4 942.848 1151.27 940.778 1155.49 939.939C1159.71 939.1 1164.08 939.53 1168.05 941.176C1172.02 942.821 1175.42 945.608 1177.81 949.183C1180.2 952.758 1181.47 956.961 1181.47 961.261C1181.47 967.024 1179.17 972.55 1175.1 976.625C1171.02 980.701 1165.5 982.993 1159.73 983ZM1159.73 943.144C1156.15 943.144 1152.65 944.207 1149.67 946.197C1146.69 948.188 1144.37 951.017 1143 954.328C1141.62 957.638 1141.27 961.281 1141.96 964.795C1142.66 968.309 1144.39 971.537 1146.92 974.071C1149.46 976.604 1152.68 978.33 1156.2 979.029C1159.71 979.728 1163.35 979.369 1166.67 977.998C1169.98 976.626 1172.8 974.304 1174.8 971.325C1176.79 968.346 1177.85 964.844 1177.85 961.261C1177.84 956.457 1175.93 951.853 1172.54 948.456C1169.14 945.06 1164.54 943.15 1159.73 943.144Z" fill="#F0F0F0"/>
<path d="M476.449 543.301H440.686V507.538H476.449V543.301ZM443.437 540.55H473.698V510.289H443.437V540.55Z" fill="#121219"/>
<path d="M1435.95 793.45L1411.56 767.297L1437.71 742.903L1462.1 769.056L1435.95 793.45ZM1415.44 767.432L1436.08 789.562L1458.21 768.921L1437.57 746.791L1415.44 767.432Z" fill="#F0F0F0"/>
<path opacity="0.1" d="M2000 174.525V692.649C1931.29 692.649 1865.4 665.355 1816.82 616.771C1768.24 568.188 1740.94 502.294 1740.94 433.587C1740.94 364.879 1768.24 298.986 1816.82 250.402C1865.4 201.819 1931.29 174.525 2000 174.525V174.525Z" fill="black"/>
<path opacity="0.1" d="M1760.87 442.645C1870.93 442.645 1960.14 353.425 1960.14 243.367C1960.14 133.308 1870.93 44.0881 1760.87 44.0881C1650.81 44.0881 1561.59 133.308 1561.59 243.367C1561.59 353.425 1650.81 442.645 1760.87 442.645Z" fill="black"/>
<path opacity="0.1" d="M1585.14 228.874C1641.17 228.874 1686.59 183.452 1686.59 127.423C1686.59 71.393 1641.17 25.9719 1585.14 25.9719C1529.12 25.9719 1483.7 71.393 1483.7 127.423C1483.7 183.452 1529.12 228.874 1585.14 228.874Z" fill="black"/>
<path d="M1585.71 180.091C1575.27 180.091 1565.08 176.997 1556.4 171.201C1547.73 165.405 1540.97 157.167 1536.98 147.529C1532.98 137.891 1531.94 127.285 1533.97 117.053C1536.01 106.821 1541.03 97.4226 1548.41 90.0458C1555.79 82.6689 1565.18 77.6452 1575.42 75.61C1585.65 73.5747 1596.25 74.6193 1605.89 78.6116C1615.53 82.6039 1623.77 89.3647 1629.56 98.0389C1635.36 106.713 1638.45 116.911 1638.45 127.344C1638.44 141.328 1632.88 154.736 1622.99 164.624C1613.1 174.513 1599.69 180.075 1585.71 180.091V180.091Z" fill="#121219"/>
<path d="M996.939 198.139C1007.02 198.139 1015.2 189.965 1015.2 179.881C1015.2 169.797 1007.02 161.622 996.939 161.622C986.855 161.622 978.68 169.797 978.68 179.881C978.68 189.965 986.855 198.139 996.939 198.139Z" fill="#F0F0F0"/>
<path d="M996.939 232.628C986.506 232.628 976.308 229.534 967.634 223.738C958.96 217.942 952.2 209.704 948.207 200.066C944.215 190.428 943.171 179.822 945.206 169.59C947.241 159.358 952.265 149.96 959.641 142.583C967.018 135.206 976.416 130.182 986.648 128.147C996.88 126.112 1007.49 127.156 1017.12 131.149C1026.76 135.141 1035 141.902 1040.8 150.576C1046.59 159.25 1049.68 169.448 1049.68 179.881C1049.67 193.865 1044.11 207.273 1034.22 217.161C1024.33 227.05 1010.92 232.612 996.939 232.628V232.628ZM996.939 131.191C987.309 131.191 977.895 134.047 969.888 139.397C961.882 144.747 955.641 152.351 951.956 161.248C948.271 170.145 947.307 179.935 949.185 189.38C951.064 198.824 955.701 207.5 962.51 214.309C969.32 221.119 977.995 225.756 987.44 227.635C996.885 229.513 1006.67 228.549 1015.57 224.864C1024.47 221.179 1032.07 214.938 1037.42 206.931C1042.77 198.924 1045.63 189.511 1045.63 179.881C1045.61 166.972 1040.48 154.596 1031.35 145.468C1022.22 136.34 1009.85 131.206 996.939 131.191V131.191Z" fill="#2F2E41"/>
</g>
<defs>
<clipPath id="clip0_1_11">
<rect width="2000" height="982" fill="white"/>
</clipPath>
</defs>
</svg>
